   <!-- <?xml version="1.0" encoding="UTF-8" standalone="no"?>
   <svg
      width="308.7612359841165"
      height="304.915625"
      viewBox="0 0 106.00782394174519 104.68749999999999"
      class="css-1j8o68f"
      version="1.1"
      id="svg23"
      sodipodi:docname="logo.svg"
      xmlns:inkscape="http://www.inkscape.org/namespaces/inkscape"
      xmlns:sodipodi="http://sodipodi.sourceforge.net/DTD/sodipodi-0.dtd"
      xmlns="http://www.w3.org/2000/svg"
      xmlns:svg="http://www.w3.org/2000/svg">
   <sodipodi:namedview
      id="namedview25"
      pagecolor="#ffffff"
      bordercolor="#000000"
      borderopacity="0.25"
      inkscape:showpageshadow="2"
      inkscape:pageopacity="0.0"
      inkscape:pagecheckerboard="0"
      inkscape:deskcolor="#d1d1d1" />
   <defs
      id="SvgjsDefs2684" />
   <g
      id="SvgjsG2685"
      featurekey="rootContainer"
      transform="matrix(0.9820592540669653,0,0,0.9820592540669653,-0.054560523427421584,0)"
      fill="#ff4a3f">
      <g
         id="g17">
         <path
            d="M19.8 15.3h.5l-.4-.2zm.5.1zm.8-.7c0 .1 0 .1.1.1l.4-.3c-.2-.1-.3-.1-.5.2zm.4-.2zm-4.1 2.3zm-.2.6l.3-.2c.1-.1.1-.2.1-.2h-.2l-.2.4c-.1-.1-.1 0 0 0zm2.2-2.9h-.1l-.2.2h.3zm-2.1 2.4l.6-.5c.1-.1.1-.2.1-.3h-.3l-1.2 1.1-.2.4.7-.6zm-1.1.8z"
            id="path3" />
         <path
            d="M9.7 25v-.2a1.7 1.7 0 0 1 .7-1.1l.9-.6.5-.6.7-.7.4-.4.4-.3a1.9 1.9 0 0 0 .8-.9l.4-.5a5.9 5.9 0 0 0 1-1.3l.2-.3.3-.2-.2-.3.4-.5c.8-.6 1.4-1.4 2.2-2l.3-.3a1.4 1.4 0 0 1 .5-.6l.8-.4h.4a1.4 1.4 0 0 0 .7-.6V13a3.5 3.5 0 0 1 1.3-1.4l.8-.5.2-.2.4-.4 1-.5h.2l-1.1.4-1.4 1c-.6.5-1.4.6-1.8 1.4h.3c-.7.2-1.4.5-1.7 1.2s-.8.6-1.2.9a.4.4 0 0 0-.3.4c-.8-.1-1.1.5-1.5.9v.8a3.9 3.9 0 0 0-1.6 1.4c-1.6.1-1.6 2.1-3 2.5h-.1a.2.2 0 0 0 0 .2c-.3 0-.5.2-.4.5l-.2.5c-.7.4-.6 1.1-1 1.7-.8.5-1.1 1.5-1.7 2.2l.3.5.2-.2a11.6 11.6 0 0 1 .9-1.3zM53.9 3.3l.6.2h.2a2.2 2.2 0 0 0 1.4.2 4.1 4.1 0 0 1 1.9.1h1.2a1.4 1.4 0 0 1 1.2.3.1.1 0 0 1 0 .1H60a.1.1 0 0 0 0 .1h.7a1.8 1.8 0 0 1 1.3 0c.2 0 .1.1.2.2l.5.2h-.2c-.2-.4-.5-.4-.8-.4a9.7 9.7 0 0 0-4.3-.9h-.8A9.8 9.8 0 0 0 53 3h.2zm7.3 3.1zM50.3 4.7zm10.9 1.7h.2-.2zM19 14.7zm32.1-10zm17.6 2.2a.9.9 0 0 0 1 .2h.6a3.1 3.1 0 0 0-1.8-.7l-.7-.2.5.3zm-3.4-1.3c0 .1.1.2.2.3h.2l.5-.3a4.2 4.2 0 0 0-1.7-.6l.7.4zm7.4 2.7l.8.5c-.2-.3-.4-.5-.8-.5z"
            id="path5" />
         <path
            d="M99 76.1l.6-1.6.6-1.5c.2-.5.6-1.8.8-2.6a1.7 1.7 0 0 1 .3-.7h.1v-1.1c.5-.1.4-.6.5-.9l.8-4.7a12.7 12.7 0 0 0 0-6.2 1.9 1.9 0 0 0-.5-1.6v-4.3c-.3-.9.3-1.9-.4-2.7L101 45a.4.4 0 0 0 0-.2l-.2-.6a.5.5 0 0 1 0-.4h.1c.3 0 .3-.5.3-.9a3 3 0 0 0-.4-1.1l-.3-.4a1.1 1.1 0 0 1-.2-.7 6.7 6.7 0 0 0-.2-2v-.6c-.2-.7-.4-1.5-.6-2.2l-.2-.5a2.5 2.5 0 0 1-.4-1.1 2.5 2.5 0 0 0-.3-.8l-.6-1a.8.8 0 0 0-.6-.2h-.1V32h-.2v-.8H97V31a.4.4 0 0 0 0-.1v-.2c.1-.2.1-.3-.1-.5a1.8 1.8 0 0 1-.4-.6l-.2-.6a2.9 2.9 0 0 0-.7-1.2 2.2 2.2 0 0 1-.5-.7l-.7-1.6a4.3 4.3 0 0 0-.6-1l-.6-.8a2.4 2.4 0 0 1-.4-.8l-.2-.3a.6.6 0 0 1-.1-.5.5.5 0 0 0-.2-.4l-.4-.3v.2c.1.2 0 .3-.1.3h-.2l.3 1 .3.5.7.9h-.1l-.2-.2-.2-.2a1.3 1.3 0 0 0-1.2-1.1v-.7c-.3-1.2-1.6-1.3-2.2-2.1a1.5 1.5 0 0 0-1.1-.9l-.8-.9a11.3 11.3 0 0 0-3.1-3l-.8-.6-.4-.3c-.7-.7-1-1.8-2.2-1.8l-.8-.5-.9-.7a2.2 2.2 0 0 0-1.8-1.3 5.1 5.1 0 0 0-2.3-1.2l.2.2.5.4 1.3.7a8.5 8.5 0 0 1 2.1 1.6 6.8 6.8 0 0 0 1.5 1.1l.6.5c.1.1.2.2.1.3H81l-.9-.3a5.6 5.6 0 0 1-2-.8l-1.2-.6-1.3-.7h-.2c-.3-.1-.4-.4-.8-.5l-.8-.2-2.5-.5a2.6 2.6 0 0 1-.9-.7 1.7 1.7 0 0 1-.9-.3l-1-.4a18.1 18.1 0 0 1-2.8-.8l-.6-.2-1-.3h-.5l-.2-.3v-.1h-1.6l-.6-.5-.4.2-.4.2h-.2l-.9-.5c-.6.6-1.1-.2-1.6-.1l-1-.3a1.2 1.2 0 0 1-1.2 0h-1.2a.6.6 0 0 1-.5-.6l.3-.2h.6a.7.7 0 0 1 .1.3c0 .2.2.2.5.2h.2l-.4-.6a1.1 1.1 0 0 0-1-.2l-1 .3H53c.3.2.2.3.2.5h-1.6l-.4-.2-.8-.4h-.1l-.7-.2h-2.3l.4-.2.8-.2h.3l1.7-.3 1.1-.2.6-.2h-1.1a8.4 8.4 0 0 0-3.4 0h-1.3L43 3.6c-1.4.1-2.8 0-3.9 1.2-2.5-.4-4.7.7-6.9 1.8l-2.2.9a6.7 6.7 0 0 0-3.7 1.8h.3l.5-.3.8-.5 1.3-.6 1-.2a6 6 0 0 1 2-.9l.9-.3h.2c.1.2.5 0 .7 0h.2c.1 0 .1.1 0 .1l-.6.4 1-.3.8-.2-1.3.7-1.3.4a1 1 0 0 0-.6.5l-.3.5h.3l.4-.2a1.4 1.4 0 0 1 .9-.6l1.5-.5h.5a.1.1 0 0 1 .1.2c-.2.2-.6.3-.8.5h.2l-3.2.9-3.8 1.6a5.2 5.2 0 0 1-2.3 1.2 6.6 6.6 0 0 1-1.7 1.1l-.8.2a1.5 1.5 0 0 1-1.3.9l-.3.5a3.7 3.7 0 0 1-1.2 1.1h-.1v-.1l-.2.2-.2.2-1 .2h-.5l-.4.5c-.1.1-.1.2 0 .2h.1c-.6.6-1 1.4-1.8 1.7L15 19.9c-.6 1.2-1.8 1.6-2.6 2.6s-1.4 3.9-3.9 4.3l-.2-.3-.2.5a2.7 2.7 0 0 1-.4.8 16.9 16.9 0 0 0-1.2 2.1.8.8 0 0 0-.1.5 1.4 1.4 0 0 1-.2.8l-.5 1.1h.2c.3 0 .3.3.4.6l.8-1.1a2.2 2.2 0 0 1 .6-.7 2 2 0 0 0 .9-.9l.3-.3.4-.4.6-1.1h.2c.1.1.1.1.2 0l.2-.4h.5v.8l.5-.5a.5.5 0 0 0 0-.5.4.4 0 0 1 .1-.3 1.5 1.5 0 0 0 .3-.5 1.3 1.3 0 0 1 .8-.9l.3-.2.3-.3a2.4 2.4 0 0 0 .8-1l-.2-.3c0-.1.1-.3.2-.4h.5l.6-.8.6-.3h.2a48.8 48.8 0 0 0-5.5 7.2h-.1.1a48.4 48.4 0 0 0-5.3 11.2h-.5l-.5-.4c-.2-.2-.1-.7-.4-.9h.1c.3-.5-.1-1.2.3-1.7s.1-1.4-.9-1.2-1.5.5-1.3 1.5-1 1.8-1.1 2.9-.5.5-.3.9v3.9c.1.8-.5 1.8.8 2.1l1.3.9c.1.5-.5 1.6.9 1.3a49.2 49.2 0 0 0-.3 5c0 1.1.1 2.2.1 3.3v-.4c-.1-.4-.1-.8-.2-1.3l-.3.3v-.2h-.5c0 .5-.1.8-.4.9a.9.9 0 0 0-.1.5c0 .1.1.3.2.2s.4.2.7.4-.2.3-.4.2-.2.1-.2.3v.3l.5 1.5c0 .3-.1.6-.1.9a1.7 1.7 0 0 0 .2.8h-.3v-.3l-.7-.2v-.6a1.5 1.5 0 0 0 0-.5 14.6 14.6 0 0 1-.3-1.8 16.6 16.6 0 0 1-.2-3.5.9.9 0 0 1 .1-.5v.2a2.9 2.9 0 0 1 .1.5.8.8 0 0 0 .1.4c.1.2.2.4.4.4s.1-.1.1-.2a2.1 2.1 0 0 0-.1-.5 4.2 4.2 0 0 1-.3-1.3 1.5 1.5 0 0 0-.3-.7 1.6 1.6 0 0 1-.2-.9v-.8c0-.3.1-.6.1-.9a.5.5 0 0 0-.1-.4h-.1c-.8.4-.7.2-1 1.6V55c0 .7-.1 1.4 0 2.1a10.8 10.8 0 0 0 .2 2.3 1.8 1.8 0 0 1 0 .5 3.1 3.1 0 0 0 .1.9 5.9 5.9 0 0 1 .1 1.3 3.9 3.9 0 0 0 .2 1.7 1.2 1.2 0 0 1 0 .4 2.1 2.1 0 0 0 .1.8 4.9 4.9 0 0 1 .2.9 14 14 0 0 0 .5 2.2 5 5 0 0 1 .2 1 1.7 1.7 0 0 0 .3.7 2.9 2.9 0 0 1 .5 1.2 8.5 8.5 0 0 0 .3 1l.4 1.4a5.4 5.4 0 0 0 .6 1.5 8.5 8.5 0 0 1 .8 2.1l.2.5a2.1 2.1 0 0 1 .5 1 2.1 2.1 0 0 0 .4.8 1 1 0 0 1 .2.5c.1.3.2.4.4.3h.1v.9l.5 1 .5 1 1.1 1.2.4.4c.3.3.7.5.9 1l.4.3a.7.7 0 0 1 .3.5l.2.7a3.3 3.3 0 0 0 .6.9l.4.2h.3a.2.2 0 0 1 .1.3 2.5 2.5 0 0 0 0 .5.9.9 0 0 0 .4.5h.2c.4-.1.8.2 1.2.7h.1c0-.1.1-.1 0-.2v-.2c0-.1.1-.2.2-.1a.7.7 0 0 1 .3.6v.2a4.3 4.3 0 0 0 .4 1.2c.5.3.5.3.5.1s0-.2.2-.2h.4l.2.3.8.5c.7.8 1.8.7 2.6 1.2l1.7 1.7h.2a2.9 2.9 0 0 0 1.6 1.6 1.3 1.3 0 0 0 1 .6c0 .5.6.6 1.1.7a1.2 1.2 0 0 0 .8.4h.2a1.7 1.7 0 0 0 1.5.5l.9.8 2.4.9v.2c.5 1.1 1.7.7 2.5 1l1.1.4h.4c1.2.3 2.4.9 3.7.5a.7.7 0 0 0 0 .4c1.1.7 2.4 0 3.6.4a2.9 2.9 0 0 0 1.7.1h.1l.8.2h.3l.9.2h.3a.5.5 0 0 1 .5 0 7.9 7.9 0 0 0 1.5.4h.6a.7.7 0 0 1 .7 0h3.9a5 5 0 0 0 1.6-.1h1l.5-.2H60l.6-.2.5-.3h2.2v.6H62l-1.2.2c-.4.1-.7 0-1 .1a2.4 2.4 0 0 1-1 .2l-1.3.3h-.4a3.1 3.1 0 0 0-1.5.1h-1.8a1.1 1.1 0 0 1-.9 0h-4.5a1.3 1.3 0 0 0-1.1.3H47l-.3-.2v-.3h-1.2a4.1 4.1 0 0 0-1.3-.3h-2.5l-.7-.2-.5-.2-2.1-.4h-.5l-.5-.2-2.1-.7-1.4-.4h-2.2c-.1 0-.1.1-.1.2h.2c1.3.5 2.6.9 3.9 1.5h.3l.9.2 1.4.4h1.3l.6.2.7.3 1.7.3 1.1.2 1.1.2h.8l.8.2h3.1l1 .2h2.3l1-.2H56c.4 0 .6-.1.7-.3h1a1 1 0 0 0 .8-.3c-.1.1 0 .1.1.2h.4v-.2c0-.1 0-.1.2-.2s.6-.1.7.1h.4l.3-.2c.2 0 .2 0 .2.1h.7l.5-.2.8-.4c.1.3.4.4 1.3.2l1.3-.4h1.2c.9-.1 2 0 2.7-.7h.2l.4-.3 1.1-.3a6.1 6.1 0 0 0 2-.8l.4-.2h.1l.9-.6.4-.2.5-.2h.4c.4-.1.4-.1.5-.4s0-.1-.2-.1h-.1l.4-.5h.2c.3-.1.5-.2.7-.1h.2a1.3 1.3 0 0 0 .9-.9c.3-.4 1.1-.2 1.3-.8l4.3-3.1c1.1-.1 1.4-1.1 2.2-1.7s2.3-1.1 3-2.2l.9-.4h.1a1 1 0 0 0 1.2-.7v.4c.8-.4 1.8.3 2.6-.5s0-2.7 1-3.8l.7-.5a12.1 12.1 0 0 0 1.5-4.2l.2-.2c0-.3 0-.7.4-.9a.9.9 0 0 0 .2-1.2h-.2a.3.3 0 0 0 0-.3c.7 0 .8-.7 1.2-1V77a.5.5 0 0 1 0-.2 3.8 3.8 0 0 0 .1-.7zM5.9 32.2z"
            id="path7" />
         <path
            d="M26.4 9.3l-.3.2-.4.3.5-.2zm6.1-2h.1l.3-.2h-.4zm-2.6 1l-.1.1h.1v-.1zm-1.5 1.4zm1.3-.2zm-6.3 3.1zM9.2 26.2l-.4.4H9a.4.4 0 0 0 .2-.4zm3-3.5a2.1 2.1 0 0 0 .3-.6 1.5 1.5 0 0 0-.5.5c-.1.1-.1.2 0 .2zM11 24.2V24c-.2 0-.5.3-.8.3v.2c.3.3.4.2.8-.3zm3 66.2zM73.9 9.2h.1l-.5-.3zm-2.5-1.4c.5-.1.8.4 1.2.5h.1l-.3-.2-1-.5-1.1-.5.3.2zM52.8 3.1zm11.7 2h-.1l-1.2-.2h.5zm2 .7l1.3.4a3.3 3.3 0 0 0-1.3-.4zm-9 0a1 1 0 0 0 .2-.5h-.5l-.3.3.4.3zm9 1.6zM49.9 4.2zm2.9.7zM48.5 4zm13.8 2.1a.5.5 0 0 0 0 .1zm44.8 52.3h-.3V58h.3c.1 0 .2-.3.1-.4s-.1-.7-.3-.8a.3.3 0 0 1-.2-.3l.2-.4a.4.4 0 0 0 0-.2h-.2l-.2-.3c-.1.3-.2.6-.4.7a.5.5 0 0 0 0 .2c0 .1 0 .2-.1.2h-.1a1.1 1.1 0 0 1-.1.3 2.3 2.3 0 0 0-.4.9.4.4 0 0 0 .1.4h.1a1.7 1.7 0 0 0-.1.8v.4a1.8 1.8 0 0 1-.1.5h-.1l-.4.7v.6a1.5 1.5 0 0 1-.3 1.1h-.2l-.2-.2a.9.9 0 0 1-.1-.8 6.5 6.5 0 0 0 .1-1.7c0-.1-.1-.2-.1-.2a.5.5 0 0 0-.1.3v.6c0 .2-.1.6-.3.7s-.1.2-.1.3l-.2.6.3.5c-.2.2-.4.1-.5-.1v1h.3v.4a4.2 4.2 0 0 0-.3 1.4 3.3 3.3 0 0 0 0 .4 4 4 0 0 1-.2 1.3 2 2 0 0 0 0 .6l-.3.7a3.2 3.2 0 0 1-.3.7l-.3.6-.9 2.7c.3.9-.4 1.5-.8 2.1a2.7 2.7 0 0 1-.8 2.3v.4c0 .1.1.2.3.1l.4-.3.2-.4h.2c.1.1.2.1.4-.1h.2a.5.5 0 0 1 .1.6 2.9 2.9 0 0 0-.1.8c0 .1 0 .2.1.2h.2c.1.1.2 0 .3-.3l.2-.5h.3c.4-.1.4-.1.6-.6l.5-.9.3-.6.4-1a1.6 1.6 0 0 1 .3-1 .6.6 0 0 0 .1-.6c0-.2 0-.3.2-.6l.3-.4.5-1a4.7 4.7 0 0 1 .2-.9 3 3 0 0 0 .3-1.3 3.8 3.8 0 0 1 .3-.9v-.5c-.1-.2-.1-.2 0-.6s.1-.2.2-.2a.4.4 0 0 1 .1.3l.2-.5a2.3 2.3 0 0 0 .2-.9v-.3c0-.1 0-.3-.1-.3v.4c-.2 0-.3.2-.5.3a6.4 6.4 0 0 0 .1-.8l.4-.2a.7.7 0 0 0 .2-.6 1.4 1.4 0 0 1 0-.3 4.8 4.8 0 0 0 .2-1.4v-.2l.3-1h.1a.3.3 0 0 0 .1-.3h-.1a.9.9 0 0 1 .2-.8 1.5 1.5 0 0 0-.9-1zm-1.2 7.8zm-.2-9.9zm0 0zM9.1 30.8a.3.3 0 0 0 0-.2l-.2-.2-.2.2-.3.6c0 .3-.3.6-.3.9v.2h.1zm96.3 24.8h.1a1.7 1.7 0 0 0 .2-1.2.5.5 0 0 1 .2-.5h.1v-.2l-.2-.2h-.1c-.1.1-.2.3-.3.3s-.1.1-.1.3v.3a2.2 2.2 0 0 0 .1 1.2zM13.2 90.1c-.1 0 0 .2 0 .3l.8.8h.1c-.2-.3-.3-.6-.2-.7a.9.9 0 0 1-.5-.2zm.8.3zm92.3-35.7h.1a2 2 0 0 0 0-.6c-.3.1-.3.1-.3.6s.1.1.2 0z"
            id="path9" />
         <path
            d="M106.7 62a.6.6 0 0 0 .1-.5c0-.1-.1-.2-.1-.1h-.2v.2c0 .4.1.5.2.4zm.1-8.2h-.1v.6a1 1 0 0 0 .1-.6zM17.1 92.6h-.2v.2l.2.2h.2v-.2zm86.6-33.3c0-.1 0-.1-.1-.1zM9.9 86.5l.5.5-.4-.6z"
            id="path11" />
         <circle
            cx="10.5"
            cy="87.1"
            transform="rotate(-24.8 10.4 87.159)"
            id="circle13" />
         <path
            d="M9.7 30.1h-.1v.2-.2h.1zm83.2-6.6l-.2-.3h-.1zm-14.7 77.1zM5.9 32.2zm-.1.2a.3.3 0 0 0 .1-.2v.2zm1.9-4.9zM61.5 2.4zm42.8 58.2v.1-.1zM16.4 92.5h-.1c.1.1.2 0 .1-.1zm.2.7h.1l-.1-.1v.1zm73.9-71.3zm15.2 34.4zM14.6 91.7zm92.1-37zm-.8 11.4zM34.6 0z"
            id="path15" />
      </g>
   </g>
   <g
      id="SvgjsG2686"
      featurekey="nameFeature-0"
      transform="matrix(2.284354285447385,0,0,2.284354285447385,27.980055421585643,-5.609520280720151)"
      fill="#ffffff">
      <path
         d="M9.6 16.48 l-0.32 4.24 c-0.08 1.8 2.6 1.96 2.72 0.2 l0.24 -4.28 c0.12 -1.76 -2.56 -1.96 -2.64 -0.16 z M0.48 11 l0 0 c0.04 0 20.48 -0.32 20.56 -0.2 c1.28 1.12 0.96 27.8 0.12 28.56 c-0.4 0.32 -4.64 0.56 -9.2 0.6 c-0.84 -3.84 -0.2 -8.32 -0.2 -8.32 c0.24 -1.8 -2.44 -2.12 -2.64 -0.4 c0 0.04 -0.64 4.52 0.16 8.76 c-4.56 -0.04 -8.68 -0.24 -8.92 -0.64 c-0.8 -1.44 0 -28.28 0.12 -28.36 z"
         id="path20" />
   </g>
   </svg> -->



<svg xmlns="http://www.w3.org/2000/svg" version="1.1" xmlns:xlink="http://www.w3.org/1999/xlink" xmlns:svgjs="http://svgjs.dev/svgjs" width="2000" height="2250" viewBox="0 0 2000 2250"><g transform="matrix(1,0,0,1,3.410605131648481e-13,0)"><svg viewBox="0 0 320 360" data-background-color="#ca3433" preserveAspectRatio="xMidYMid meet" height="2250" width="2000" xmlns="http://www.w3.org/2000/svg" xmlns:xlink="http://www.w3.org/1999/xlink"><g id="tight-bounds" transform="matrix(1,0,0,1,0,0)"><svg viewBox="0 0 320 360" height="360" width="320"><g><svg></svg></g><g><svg viewBox="0 0 320 360" height="360" width="320"><g><path xmlns="http://www.w3.org/2000/svg" d="M20.961 227.22l3.726 4.658-1.863-6.056c-0.466-2.795-3.726 0.466-1.863 1.398M25.153 224.425c1.397 2.329 2.795 4.658 2.795 6.987 0 3.261 2.795 4.658 5.123 5.589-3.261-3.726-5.124-13.974-7.918-12.576M204.017 26.929c7.918 0 15.371-0.932 23.756 0.931 20.495 5.124 37.729 15.371 49.374 29.811l32.606 52.169c1.397 13.042 4.192 27.482 3.726 43.319 3.261 0 2.795-4.658 6.521-5.59-3.726 9.316-5.59 20.961-6.521 34.469-2.329-7.453 0-18.632 0.466-24.687-3.261 5.124-5.124 1.397-5.124-0.932 0.466-3.726-1.397-3.261-2.795-4.658-5.124-4.658-8.384-9.782-12.11-17.7 2.329-6.055 2.795-14.905-4.658-19.563-2.329-1.397-5.124-3.726-6.521-7.453-1.863-5.124-5.124-11.179-4.193-19.097 0.466-2.329-6.987 5.124-11.179 1.863-18.166-12.576-36.332-27.016-58.224-39.127-11.645 0-20.029-4.192-24.221-9.316-3.726-4.658-0.932-10.713 4.658-11.179 3.261 0 6.987-0.932 9.782 0.932 0.466-1.863 2.329-4.192 4.657-4.192M157.904 16.215l0.932 0.466c4.658 0.932 6.987 7.453 12.11 5.124 0 3.261 0.466 6.521-0.466 8.85-1.397 3.726-5.59 3.726-8.85 3.726-31.208-1.863-49.374 11.179-68.471 22.358-5.124 3.261-10.713 5.59-14.906 9.782-20.029 18.632-41.921 35.866-47.045 70.335l-4.192 38.195c-0.466 4.192-5.124 8.384-4.192 13.508l3.26 22.824c-3.261-3.261-5.124 0.932-4.192 2.795 0.466 1.397 2.329 6.055 5.124 1.863 3.726 6.987 7.453 20.495 12.576 26.55 15.837 18.632 36.332 35.4 53.101 52.169 4.192-0.932 7.453-0.932 8.384-3.727 1.397 2.795-1.397 5.59-3.726 6.056 7.453 4.658 15.837 8.85 27.016 9.781 14.44 0.932 27.948 3.261 40.524 6.522 6.521-1.863 13.042-2.795 20.029-3.261 2.329 0 3.726-3.726 6.521-4.658l0.466-4.658c2.795 4.192 2.329-1.397 0.466-4.192 3.261 2.795 4.192 5.124 5.589 6.987 0-1.397 3.726-6.521 3.727-0.466l0.931-6.055c1.397-0.932 1.863 5.124 3.261 0.931 1.397-4.192 4.192-0.932 6.987-2.329-0.932 1.863-0.466 5.59 2.794 3.261l3.727-3.261c2.329 5.59 6.055 3.261 7.918 2.329 20.495-13.042 40.99-28.413 60.553-43.784l-0.466 6.055 2.329-7.453c2.329 2.329 4.192 0.466 5.124-0.931 2.795-4.658 6.521-9.316 12.577-13.508-7.453 20.029-16.303 35.866-27.482 48.908l-4.658 5.59c0 3.261-0.932 7.453-4.658 7.918-1.863 0.466-5.59-0.932-8.384 1.863-1.397 1.863 3.261 5.59-0.466 2.795-3.261-2.329-6.521 0-10.248 0.932-2.795 0.932 1.863 3.726 2.795 5.589 0.932 1.863 1.863 3.726 1.398 6.056l-5.124-5.59c-6.055 3.261-9.782 9.316-14.906 13.974-2.329 1.863-1.397 5.124-1.397 7.918-3.261 0-6.987-0.932-8.85 0.932-1.397 1.863-0.932 4.658-0.932 7.453-4.658-0.466-5.124-7.453-9.315-6.056-4.192 0.932-8.85 1.397-12.577 3.727 2.795 5.59-4.658 2.329-3.726 3.26-6.987-4.192-13.042-7.453-20.495-4.658-15.837-5.124-35.4-2.795-49.84-0.931 0-2.329 0.466-4.658-0.466-5.124-0.932 2.329-3.726 1.397-3.26 1.397-8.85-6.055-17.7-9.782-27.016-14.905-8.384 0.932-16.303-3.261-18.632-5.59-6.521-6.055-13.974-2.795-20.029-4.192-13.042-3.261-17.7-16.769-19.098-26.084-0.932-4.658-4.658-6.521-6.055-6.056-6.055-19.563-15.371-37.263-22.824-55.429-1.863-4.658-1.397-9.316-1.397-14.44 2.329 0.932 4.658 0.466 4.192-2.794-2.329-15.371-7.918-27.016-13.974-38.195 3.261-15.837 3.726-34.469 11.179-48.443 6.521-12.576 18.632-19.098 27.016-29.811 2.795-3.726 2.795-8.85 5.59-12.11 9.316-9.316 18.632-19.098 28.879-27.482 4.658-3.726 10.247 0 17.234-1.397 2.329-8.384 11.645-15.837 20.495-13.508 3.726 0.932 11.179-8.85 13.508-9.782 3.726-1.397 1.863 3.726 1.863 6.987 8.85-6.987 20.961-10.713 32.14-14.906" fill="#ffffff" fill-rule="nonzero" stroke="none" stroke-width="1" stroke-linecap="butt" stroke-linejoin="miter" stroke-miterlimit="10" stroke-dasharray="" stroke-dashoffset="0" font-family="none" font-weight="none" font-size="none" text-anchor="none" style="mix-blend-mode: normal" data-fill-palette-color="tertiary"></path></g><g transform="matrix(1,0,0,1,64,146.56983240223462)"><svg viewBox="0 0 192 66.86033519553072" height="66.86033519553072" width="192"><g><svg viewBox="0 0 192 66.86033519553072" height="66.86033519553072" width="192"><g><svg viewBox="0 0 192 66.86033519553072" height="66.86033519553072" width="192"><g><svg viewBox="0 0 192 66.86033519553072" height="66.86033519553072" width="192"><g id="textblocktransform"><svg viewBox="0 0 192 66.86033519553072" height="66.86033519553072" width="192" id="textblock"><g><svg viewBox="0 0 192 66.86033519553072" height="66.86033519553072" width="192"><g transform="matrix(1,0,0,1,0,0)"><svg width="192" viewBox="3.6100001335144043 -36.040000915527344 104.87999725341797 36.53000259399414" height="66.86033519553072" data-palette-color="#f7e1e1"><path d="M3.61-35.55L11.62-35.55 21.88-8.3 32.1-35.55 40.09-35.55 40.09 0 33.94 0 33.94-11.72 34.55-27.39 24.05 0 19.63 0 9.16-27.37 9.77-11.72 9.77 0 3.61 0 3.61-35.55ZM74.63-18.24L74.63-4.61Q72.7-2.1 69.28-0.81 65.87 0.49 61.52 0.49L61.52 0.49Q57.05 0.49 53.61-1.54 50.17-3.56 48.3-7.34 46.43-11.11 46.36-16.14L46.36-16.14 46.36-18.92Q46.36-26.98 50.22-31.51 54.07-36.04 60.98-36.04L60.98-36.04Q66.92-36.04 70.41-33.11 73.9-30.18 74.61-24.66L74.61-24.66 68.55-24.66Q67.53-31.08 61.11-31.08L61.11-31.08Q56.96-31.08 54.79-28.09 52.63-25.1 52.56-19.31L52.56-19.31 52.56-16.58Q52.56-10.82 54.99-7.63 57.42-4.44 61.74-4.44L61.74-4.44Q66.48-4.44 68.48-6.59L68.48-6.59 68.48-13.55 61.15-13.55 61.15-18.24 74.63-18.24ZM86.18-35.55L93.65-22.71 101.12-35.55 108.25-35.55 97.5-17.92 108.49 0 101.29 0 93.65-13.04 85.98 0 78.8 0 89.81-17.92 79.05-35.55 86.18-35.55Z" opacity="1" transform="matrix(1,0,0,1,0,0)" fill="#ffffff" class="undefined-text-0" data-fill-palette-color="primary" id="text-0"></path></svg></g></svg></g></svg></g></svg></g><g></g></svg></g></svg></g></svg></g></svg></g><defs></defs></svg><rect width="320" height="360" fill="none" stroke="none" visibility="hidden"></rect></g></svg></g></svg>