<svg xmlns="http://www.w3.org/2000/svg" version="1.1" xmlns:xlink="http://www.w3.org/1999/xlink" xmlns:svgjs="http://svgjs.dev/svgjs" width="1000" height="1000" viewBox="0 0 1000 1000"><rect width="1000" height="1000" fill="#ffffff"></rect><g transform="matrix(0.7,0,0,0.7,150,150)"><svg viewBox="0 0 280 280" data-background-color="#ffffff" preserveAspectRatio="xMidYMid meet" height="1000" width="1000" xmlns="http://www.w3.org/2000/svg" xmlns:xlink="http://www.w3.org/1999/xlink"><g id="tight-bounds" transform="matrix(1,0,0,1,0,0)"><svg viewBox="0 0 280 280" height="280" width="280"><g><svg viewBox="0 0 280 280" height="280" width="280"><g><svg viewBox="0 0 280 280" height="280" width="280"><g id="textblocktransform"><svg viewBox="0 0 280 280" height="280" width="280" id="textblock"><g><svg viewBox="0 0 280 280" height="280" width="280"><g transform="matrix(1,0,0,1,90.50252531694167,90.50252531694167)"><svg viewBox="0 0 98.99494936611666 98.99494936611666" height="98.99494936611666" width="98.99494936611666"><g><circle r="49" cx="49.49747468305833" cy="49.49747468305833" fill="#8d021f" data-fill-palette-color="accent"></circle></g></svg></g><path d="M36.979 172.734l1.574 4.284-19.037 14.827 24.104-1.032 1.574 4.284-26.434 9.711-1.218-3.316 10.292-3.781 10.424-3.48-23.145 0.648-0.934-2.543 18.012-14.418-10.133 4.071-10.292 3.781-1.221-3.325zM32.224 225.656l4.886-5.927-5.278-7.918-7.335 2.253-2.014-3.022 28.463-8.072 1.684 2.526-18.391 23.182zM47.662 206.971l-12.775 3.912 4.26 6.391zM61.305 216.65l-18.407 17.1 7.516 8.092-2.224 2.066-9.942-10.701 20.633-19.167zM68.92 248.679l2.825 2.202c-1.984 2.286-4.074 3.584-6.271 3.894-2.2 0.315-4.408-0.392-6.625-2.121v0c-2.222-1.733-3.33-3.96-3.322-6.68 0.009-2.711 1.144-5.517 3.405-8.418v0l3.136-4.022c2.254-2.89 4.706-4.648 7.358-5.273 2.656-0.63 5.15-0.036 7.481 1.782v0c2.144 1.672 3.301 3.61 3.47 5.814 0.173 2.199-0.62 4.533-2.378 7.004v0l-2.825-2.203c1.292-1.904 1.917-3.492 1.878-4.764-0.04-1.272-0.714-2.419-2.024-3.441v0c-1.518-1.184-3.146-1.501-4.883-0.951-1.737 0.55-3.499 1.97-5.284 4.26v0l-3.173 4.069c-1.753 2.248-2.717 4.27-2.891 6.063-0.179 1.79 0.456 3.25 1.907 4.381 1.455 1.135 2.785 1.593 3.988 1.373 1.207-0.225 2.616-1.215 4.228-2.969zM96.599 254.955l-2.346 4.551c-1.761 3.416-3.846 5.672-6.257 6.767-2.404 1.098-4.947 0.956-7.628-0.427v0c-2.581-1.331-4.157-3.277-4.725-5.841-0.575-2.566-0.043-5.504 1.594-8.812v0l2.428-4.71c1.725-3.346 3.813-5.585 6.265-6.717 2.461-1.135 5.014-1.021 7.66 0.342v0c2.634 1.358 4.221 3.326 4.76 5.904 0.533 2.575-0.05 5.556-1.752 8.943zM90.94 258.2l2.423-4.701c1.364-2.646 1.946-4.836 1.745-6.569-0.201-1.733-1.195-3.061-2.982-3.982v0c-1.735-0.894-3.382-0.917-4.943-0.069-1.561 0.848-3.003 2.542-4.327 5.081v0l-2.31 4.481c-1.318 2.558-1.879 4.736-1.682 6.534 0.203 1.801 1.186 3.157 2.95 4.066 1.764 0.909 3.388 0.965 4.871 0.167 1.486-0.804 2.905-2.473 4.255-5.008zM108.103 246.432l-7.384 24.015 10.556 3.246-0.892 2.903-13.962-4.293 8.277-26.918zM120.104 249.469l4.538 0.485 4.872 23.632 9.741-22.072 4.539 0.484-2.989 28.002-3.513-0.375 1.164-10.903 1.492-10.888-9.661 21.043-2.694-0.287-4.959-22.534-0.833 10.888-1.164 10.903-3.522-0.376zM174.717 260.958l2.007 10.325-0.466 0.879c-1.35 2.379-3.707 3.895-7.071 4.549v0c-2.987 0.581-5.524 0.046-7.61-1.604-2.086-1.65-3.501-4.283-4.245-7.898v0l-1.055-5.426c-0.752-3.87-0.544-6.923 0.626-9.159 1.177-2.23 3.311-3.646 6.402-4.246v0c2.63-0.511 4.831-0.178 6.603 1 1.772 1.178 3.001 3.113 3.686 5.804v0l-3.478 0.676c-0.471-1.694-1.21-2.946-2.215-3.754-1.006-0.808-2.337-1.052-3.994-0.73v0c-1.987 0.386-3.319 1.319-3.994 2.798-0.67 1.478-0.747 3.643-0.234 6.495v0l1.097 5.64c0.542 2.786 1.489 4.819 2.843 6.098 1.354 1.28 3.025 1.727 5.012 1.341v0c1.87-0.364 3.204-1.095 4.001-2.193v0l0.423-0.578-1.24-6.38-5.046 0.981-0.575-2.961zM179.219 244.371l8.991 26.688-3.348 1.128-8.991-26.688zM197.322 235.344l1.366 2.734-6.63 3.313 11.223 22.457-3.159 1.579-11.224-22.456-6.613 3.305-1.366-2.734zM213.452 223.25l16.658 22.706-2.872 2.107-7.701-10.497-9.137 6.703 7.701 10.497-2.856 2.095-16.658-22.706 2.856-2.095 7.161 9.761 9.137-6.703-7.161-9.761zM224.35 210.901l2.405-2.628 14.765 13.512c1.954 1.824 2.973 3.806 3.059 5.947 0.085 2.141-0.79 4.214-2.625 6.22v0c-1.88 2.055-3.862 3.128-5.947 3.22-2.08 0.087-4.139-0.784-6.177-2.613v0l-14.765-13.512 2.378-2.598 14.67 13.424c1.396 1.277 2.712 1.935 3.95 1.975 1.233 0.034 2.455-0.61 3.665-1.933v0c1.219-1.332 1.755-2.609 1.608-3.828-0.148-1.23-0.92-2.483-2.316-3.761v0zM259.387 208.585l-15.183-0.134 1.391 4.106 8.192 5.072-1.864 3.012-23.944-14.825 1.865-3.012 11.558 7.157-1.393-3.594-4.952-11.983 2.241-3.619 5.721 14.303 18.599-0.086zM269.148 185.309l-7.661-0.558-3.408 8.884 6.079 4.682-1.301 3.39-23.044-18.554 1.088-2.835 29.548 1.6zM244.976 183.518l10.58 8.161 2.751-7.171z" fill="#8d021f" data-fill-palette-color="primary"></path><path d="M5.077 102.15L6.625 97.919 30.41 98.899 11.607 84.305 13.155 80.074 39.247 89.622 38.046 92.902 27.889 89.185 17.816 85.151 35.66 99.425 34.742 101.932 11.989 101.308 22.212 104.701 32.369 108.417 31.169 111.698ZM50.443 73.08L43.186 70.896 37.995 78.717 42.842 84.53 40.861 87.515 22.662 64.693 24.32 62.196 52.424 70.095ZM27.553 66.152L35.987 76.288 40.174 69.98ZM36.522 46.526L54.709 63.367 62.112 55.373 64.311 57.409 54.521 67.981 34.136 49.103ZM71.701 40.806L74.484 38.631C76.197 41.07 76.94 43.378 76.71 45.556 76.481 47.733 75.275 49.676 73.091 51.382V51.382C70.896 53.098 68.501 53.626 65.905 52.969 63.304 52.315 60.887 50.56 58.654 47.704V47.704L55.55 43.733C53.326 40.887 52.232 38.118 52.27 35.427 52.308 32.736 53.473 30.495 55.766 28.702V28.702C57.883 27.048 60.014 26.402 62.161 26.764 64.308 27.127 66.354 28.445 68.3 30.719V30.719L65.517 32.895C64.004 31.206 62.634 30.227 61.409 29.959 60.179 29.686 58.916 30.057 57.618 31.071V31.071C56.127 32.236 55.437 33.716 55.547 35.511 55.657 37.306 56.594 39.332 58.358 41.589V41.589L61.499 45.607C63.23 47.822 64.933 49.228 66.609 49.824 68.275 50.42 69.824 50.157 71.258 49.037 72.691 47.917 73.446 46.756 73.522 45.554 73.595 44.347 72.988 42.764 71.701 40.806ZM91.732 21.058L94.051 25.545C95.791 28.912 96.416 31.877 95.923 34.44 95.428 36.997 93.858 38.959 91.214 40.326V40.326C88.669 41.641 86.202 41.796 83.813 40.789 81.426 39.789 79.369 37.688 77.639 34.486V34.486L75.238 29.841C73.531 26.538 72.923 23.576 73.414 20.953 73.912 18.328 75.465 16.341 78.074 14.993V14.993C80.672 13.65 83.158 13.497 85.533 14.533 87.911 15.575 89.977 17.75 91.732 21.058ZM91.107 27.457L88.715 22.829C87.367 20.22 85.937 18.498 84.425 17.663 82.917 16.835 81.282 16.876 79.519 17.787V17.787C77.809 18.671 76.848 19.983 76.638 21.722 76.428 23.462 76.965 25.589 78.25 28.105V28.105L80.538 32.53C81.841 35.051 83.272 36.746 84.831 37.616 86.39 38.486 88.042 38.469 89.788 37.567 91.527 36.668 92.498 35.392 92.701 33.738 92.906 32.09 92.375 29.997 91.107 27.457ZM98.76 6.949L106.07 30.634 116.481 27.421 117.365 30.284 103.598 34.533 95.404 7.985ZM117.461 2.52L121.94 2.037 131.583 23.803 136.354 0.483 140.833 0 143.812 27.624 140.339 27.998 139.179 17.245 138.342 6.426 133.433 28.743 130.779 29.029 121.273 8.347 122.753 19.016 123.912 29.77 120.44 30.144ZM177.031 19.016L175.051 29.205 174.301 29.837C172.19 31.51 169.472 32.022 166.147 31.376V31.376C163.206 30.804 161.084 29.378 159.782 27.096 158.479 24.821 158.155 21.894 158.81 18.315V18.315L159.851 12.958C160.595 9.133 161.918 6.418 163.82 4.813 165.722 3.209 168.196 2.702 171.242 3.294V3.294C173.839 3.799 175.731 4.918 176.917 6.652 178.103 8.385 178.511 10.607 178.139 13.318V13.318L174.71 12.651C174.903 10.93 174.69 9.511 174.072 8.393 173.452 7.282 172.324 6.567 170.688 6.249V6.249C168.727 5.868 167.164 6.228 166 7.329 164.841 8.439 163.969 10.392 163.385 13.19V13.19L162.304 18.751C161.769 21.505 161.885 23.714 162.653 25.38 163.413 27.051 164.774 28.077 166.735 28.458V28.458C168.586 28.817 170.079 28.643 171.214 27.933V27.933L171.811 27.564 173.034 21.272 168.047 20.303 168.615 17.38ZM191.597 9.274L182.708 35.598 179.398 34.48 188.288 8.157ZM214.202 20.182L212.85 22.878 206.321 19.605 195.219 41.745 192.097 40.179 203.199 18.039 196.68 14.77 198.032 12.073ZM235.415 35.397L218.945 57.773 216.116 55.691 223.728 45.35 214.721 38.72 207.11 49.061 204.297 46.991 220.767 24.615 223.58 26.685 216.498 36.307 225.504 42.936 232.586 33.315ZM251.48 52.393L253.847 54.987 239.261 68.298C237.298 70.053 235.261 70.877 233.149 70.771 231.038 70.665 229.079 69.623 227.273 67.644V67.644C225.418 65.611 224.54 63.569 224.638 61.518 224.737 59.467 225.774 57.522 227.75 55.683V55.683L242.336 42.373 244.677 44.938 230.186 58.161C228.803 59.423 228.04 60.657 227.896 61.864 227.752 63.07 228.277 64.328 229.472 65.637V65.637C230.672 66.952 231.878 67.592 233.093 67.559 234.307 67.525 235.606 66.878 236.989 65.616V65.616ZM242.869 89.364L249.682 76.029 245.445 75.437 237.355 80.43 235.521 77.457 259.165 62.866 260.999 65.838 249.583 72.884 253.37 73.24 266.127 74.148 268.337 77.728 253.183 76.469 245.063 92.919ZM250.887 109.144L256.881 104.507 253.531 95.738 245.983 96.305 244.705 92.959 273.854 91.406 274.923 94.206 252.165 112.49ZM269.824 94.539L256.675 95.514 259.377 102.587Z" fill="#8d021f" data-fill-palette-color="primary"></path><path d="M4.472 143.475c0-5.941 4.816-10.758 10.757-10.757 5.941 0 10.758 4.816 10.758 10.757 0 5.941-4.816 10.758-10.758 10.758-5.941 0-10.758-4.816-10.757-10.758zM254.533 143.475c0-5.941 4.816-10.758 10.757-10.757 5.941 0 10.758 4.816 10.758 10.757 0 5.941-4.816 10.758-10.758 10.758-5.941 0-10.758-4.816-10.757-10.758z" fill="#8d021f" data-fill-palette-color="primary"></path></svg></g></svg></g></svg></g></svg></g><defs></defs></svg><rect width="280" height="280" fill="none" stroke="none" visibility="hidden"></rect></g></svg></g></svg>